<?xml version="1.0" standalone="no"?>
<!DOCTYPE svg PUBLIC "-//W3C//DTD SVG 20010904//EN"
 "http://www.w3.org/TR/2001/REC-SVG-20010904/DTD/svg10.dtd">
<svg version="1.0" xmlns="http://www.w3.org/2000/svg"
 width="256.000000pt" height="256.000000pt" viewBox="0 0 256.000000 256.000000"
 preserveAspectRatio="xMidYMid meet">
<metadata>
Created by potrace 1.11, written by Peter Selinger 2001-2013
</metadata>
<g transform="translate(0.000000,256.000000) scale(0.100000,-0.100000)"
fill="#000000" stroke="none">
<path d="M1058 2525 c-1 -1 -39 -6 -83 -9 -183 -14 -356 -61 -475 -129 -61
-34 -188 -155 -213 -202 -49 -93 -100 -231 -111 -300 -6 -43 -15 -95 -22 -135
-22 -131 -22 -546 1 -750 10 -92 73 -320 87 -320 5 0 8 -7 8 -15 0 -18 56
-110 87 -144 12 -14 19 -29 16 -34 -3 -6 -1 -7 4 -4 6 4 16 1 22 -7 7 -8 8
-16 4 -18 -4 -3 -2 -3 5 -2 14 4 53 -31 44 -40 -3 -3 4 -6 14 -6 11 0 30 -9
42 -20 12 -12 22 -19 22 -16 0 3 22 -6 49 -19 27 -14 54 -25 59 -25 6 0 18 -7
26 -16 9 -8 16 -10 16 -4 0 7 7 7 23 -1 12 -7 38 -14 57 -16 19 -2 39 -8 45
-13 7 -6 14 -8 17 -5 2 3 29 1 59 -5 30 -5 64 -11 76 -13 12 -2 25 -6 29 -10
4 -3 12 -3 17 0 17 11 101 2 109 -10 5 -7 8 -8 8 -2 0 6 25 10 60 10 33 0 60
-4 60 -8 0 -5 5 -5 12 -1 21 13 83 8 80 -7 -1 -9 3 -7 12 4 9 12 16 14 21 8 4
-8 12 -8 27 0 16 9 19 8 13 -2 -6 -8 -4 -10 6 -3 8 4 28 9 44 10 17 1 58 3 93
4 47 3 66 0 74 -11 8 -11 9 -11 4 4 -4 12 0 17 17 18 40 1 117 13 180 28 20 5
37 7 37 4 0 -3 6 -1 13 4 6 6 25 13 42 17 16 4 54 19 84 32 30 14 60 23 68 20
8 -3 12 -2 9 3 -4 5 14 22 39 38 25 15 45 32 45 37 0 4 7 5 16 2 8 -3 13 -2 9
3 -3 5 5 18 18 28 12 10 33 34 47 53 13 19 27 37 30 40 20 16 87 165 82 183
-1 4 5 10 13 13 8 3 13 10 10 15 -10 15 6 59 19 52 7 -4 6 -1 -1 9 -7 8 -10
17 -7 20 5 5 8 21 18 85 1 7 5 15 8 18 3 3 4 19 2 35 -2 17 0 30 4 30 19 0 17
627 -3 730 -3 14 -7 41 -11 60 -46 286 -153 463 -346 574 -90 52 -264 101
-433 121 -54 7 -551 16 -557 10z"/>
<path d="M2010 339 c0 -5 5 -7 10 -4 6 3 10 8 10 11 0 2 -4 4 -10 4 -5 0 -10
-5 -10 -11z"/>
<path d="M516 322 c-3 -5 1 -9 9 -9 8 0 12 4 9 9 -3 4 -7 8 -9 8 -2 0 -6 -4
-9 -8z"/>
<path d="M569 317 c6 -8 7 -18 3 -22 -4 -5 -1 -5 6 -1 10 6 10 11 1 22 -6 8
-14 14 -16 14 -3 0 0 -6 6 -13z"/>
<path d="M670 259 c0 -5 5 -7 10 -4 6 3 10 8 10 11 0 2 -4 4 -10 4 -5 0 -10
-5 -10 -11z"/>
<path d="M800 260 c-12 -7 -10 -9 7 -7 12 0 19 5 17 9 -6 10 -6 10 -24 -2z"/>
<path d="M716 238 c3 -5 10 -6 15 -3 13 9 11 12 -6 12 -8 0 -12 -4 -9 -9z"/>
<path d="M1676 242 c-3 -5 1 -9 9 -9 8 0 12 4 9 9 -3 4 -7 8 -9 8 -2 0 -6 -4
-9 -8z"/>
<path d="M1055 231 c-3 -5 -2 -12 3 -15 5 -3 9 1 9 9 0 17 -3 19 -12 6z"/>
<path d="M799 213 c-12 -16 -12 -17 2 -6 9 7 20 9 24 5 5 -4 5 -1 1 6 -9 16
-11 15 -27 -5z"/>
<path d="M850 226 c0 -2 7 -7 16 -10 8 -3 12 -2 9 4 -6 10 -25 14 -25 6z"/>
<path d="M890 219 c0 -5 5 -7 10 -4 6 3 10 8 10 11 0 2 -4 4 -10 4 -5 0 -10
-5 -10 -11z"/>
<path d="M935 220 c3 -5 8 -10 11 -10 2 0 4 5 4 10 0 6 -5 10 -11 10 -5 0 -7
-4 -4 -10z"/>
<path d="M1735 221 c-3 -5 -2 -12 3 -15 5 -3 9 1 9 9 0 17 -3 19 -12 6z"/>
<path d="M1230 216 c0 -2 8 -10 18 -17 15 -13 16 -12 3 4 -13 16 -21 21 -21
13z"/>
<path d="M1415 200 c-3 -5 -1 -10 4 -10 6 0 11 5 11 10 0 6 -2 10 -4 10 -3 0
-8 -4 -11 -10z"/>
<path d="M1165 180 c-3 -6 1 -7 9 -4 18 7 21 14 7 14 -6 0 -13 -4 -16 -10z"/>
</g>
</svg>
